<?xml version="1.0" encoding="UTF-8" standalone="no"?>
<!-- Generator: Adobe Illustrator 15.0.0, SVG Export Plug-In . SVG Version: 6.00 Build 0)  -->

<svg
   xmlns:dc="http://purl.org/dc/elements/1.1/"
   xmlns:cc="http://creativecommons.org/ns#"
   xmlns:rdf="http://www.w3.org/1999/02/22-rdf-syntax-ns#"
   xmlns:svg="http://www.w3.org/2000/svg"
   xmlns="http://www.w3.org/2000/svg"
   xmlns:sodipodi="http://sodipodi.sourceforge.net/DTD/sodipodi-0.dtd"
   xmlns:inkscape="http://www.inkscape.org/namespaces/inkscape"
   version="1.1"
   id="Layer_1"
   x="0px"
   y="0px"
   width="512px"
   height="512px"
   viewBox="0 0 512 512"
   enable-background="new 0 0 512 512"
   xml:space="preserve"
   inkscape:version="0.48.4 r9939"
   sodipodi:docname="android-terminal-emulator.svg"><metadata
     id="metadata111"><rdf:RDF><cc:Work
         rdf:about=""><dc:format>image/svg+xml</dc:format><dc:type
           rdf:resource="http://purl.org/dc/dcmitype/StillImage" /></cc:Work></rdf:RDF></metadata><defs
     id="defs109" /><sodipodi:namedview
     pagecolor="#ffffff"
     bordercolor="#666666"
     borderopacity="1"
     objecttolerance="10"
     gridtolerance="10"
     guidetolerance="10"
     inkscape:pageopacity="0"
     inkscape:pageshadow="2"
     inkscape:window-width="1920"
     inkscape:window-height="1058"
     id="namedview107"
     showgrid="false"
     inkscape:zoom="2.6074563"
     inkscape:cx="128.17837"
     inkscape:cy="314.39207"
     inkscape:window-x="0"
     inkscape:window-y="0"
     inkscape:window-maximized="1"
     inkscape:current-layer="Layer_1" /><path
     fill="#939288"
     d="M504,488c0,8.837-7.163,16-16,16H24c-8.836,0-16-7.163-16-16V24c0-8.836,7.164-16,16-16h464  c8.837,0,16,7.164,16,16V488z"
     id="path3" /><linearGradient
     id="SVGID_1_"
     gradientUnits="userSpaceOnUse"
     x1="255.9995"
     y1="24"
     x2="255.9995"
     y2="489.0005"><stop
       offset="0.9"
       style="stop-color:#939288"
       id="stop6" /><stop
       offset="0.9132"
       style="stop-color:#9F9E93"
       id="stop8" /><stop
       offset="0.9427"
       style="stop-color:#B3B2A6"
       id="stop10" /><stop
       offset="0.9719"
       style="stop-color:#C0BEB1"
       id="stop12" /><stop
       offset="1"
       style="stop-color:#C4C2B5"
       id="stop14" /></linearGradient><path
     fill="url(#SVGID_1_)"
     d="M504,473c0,8.837-7.163,16-16,16H24c-8.836,0-16-7.163-16-16V40c0-8.836,7.164-16,16-16h464  c8.837,0,16,7.164,16,16V473z"
     id="path16" /><linearGradient
     id="SVGID_2_"
     gradientUnits="userSpaceOnUse"
     x1="256.0005"
     y1="438"
     x2="256.0005"
     y2="8.0005"><stop
       offset="0"
       style="stop-color:#B3B0A1"
       id="stop19" /><stop
       offset="0.3701"
       style="stop-color:#B6B3A4"
       id="stop21" /><stop
       offset="0.6672"
       style="stop-color:#BEBBAE"
       id="stop23" /><stop
       offset="0.9383"
       style="stop-color:#CCCABF"
       id="stop25" /><stop
       offset="1"
       style="stop-color:#D0CEC4"
       id="stop27" /></linearGradient><path
     fill="url(#SVGID_2_)"
     d="M504,423.204c0,8.172-7.163,14.796-16,14.796H24c-8.836,0-16-6.624-16-14.796V22.796  C8,14.625,15.164,8,24,8h464c8.837,0,16,6.625,16,14.796V423.204z"
     id="path29" /><linearGradient
     id="SVGID_3_"
     gradientUnits="userSpaceOnUse"
     x1="25"
     y1="223.5"
     x2="488"
     y2="223.5"><stop
       offset="0.1"
       style="stop-color:#868478"
       id="stop32" /><stop
       offset="0.2242"
       style="stop-color:#D1D0C6"
       id="stop34" /><stop
       offset="0.75"
       style="stop-color:#B3B0A1"
       id="stop36" /><stop
       offset="0.9"
       style="stop-color:#868478"
       id="stop38" /></linearGradient><path
     fill="url(#SVGID_3_)"
     d="M488,399.956c0,12.175-9.87,22.044-22.045,22.044H47.045C34.87,422,25,412.131,25,399.956V47.044  C25,34.87,34.87,25,47.045,25h418.91C478.13,25,488,34.87,488,47.044V399.956z"
     id="path40" /><g
     id="g42"><g
       id="g44"><linearGradient
         id="SVGID_4_"
         gradientUnits="userSpaceOnUse"
         x1="448"
         y1="456"
         x2="448"
         y2="472"><stop
           offset="0"
           style="stop-color:#27AAE1"
           id="stop47" /><stop
           offset="0.3003"
           style="stop-color:#26A7DF"
           id="stop49" /><stop
           offset="0.4809"
           style="stop-color:#259FD9"
           id="stop51" /><stop
           offset="0.6298"
           style="stop-color:#2291CF"
           id="stop53" /><stop
           offset="0.7607"
           style="stop-color:#1E7DC1"
           id="stop55" /><stop
           offset="0.8"
           style="stop-color:#1C75BC"
           id="stop57" /></linearGradient><rect
         x="424"
         y="456"
         fill="url(#SVGID_4_)"
         width="48"
         height="16"
         id="rect59" /><polygon
         opacity="0.15"
         fill="#FFFFFF"
         points="424,472 424,456 472,456   "
         id="polygon61" /></g><g
       id="g63"><linearGradient
         id="SVGID_5_"
         gradientUnits="userSpaceOnUse"
         x1="392"
         y1="456"
         x2="392"
         y2="472"><stop
           offset="0"
           style="stop-color:#27AAE1"
           id="stop66" /><stop
           offset="0.3003"
           style="stop-color:#26A7DF"
           id="stop68" /><stop
           offset="0.4809"
           style="stop-color:#259FD9"
           id="stop70" /><stop
           offset="0.6298"
           style="stop-color:#2291CF"
           id="stop72" /><stop
           offset="0.7607"
           style="stop-color:#1E7DC1"
           id="stop74" /><stop
           offset="0.8"
           style="stop-color:#1C75BC"
           id="stop76" /></linearGradient><rect
         x="384"
         y="456"
         fill="url(#SVGID_5_)"
         width="16"
         height="16"
         id="rect78" /><polygon
         opacity="0.15"
         fill="#FFFFFF"
         points="384,472 384,456 400,456   "
         id="polygon80" /></g></g><linearGradient
     id="SVGID_6_"
     gradientUnits="userSpaceOnUse"
     x1="22.9258"
     y1="357.5654"
     x2="489.0732"
     y2="88.4351"><stop
       offset="0"
       style="stop-color:#58595B"
       id="stop83" /><stop
       offset="0.0885"
       style="stop-color:#444445"
       id="stop85" /><stop
       offset="0.1915"
       style="stop-color:#353334"
       id="stop87" /><stop
       offset="0.3199"
       style="stop-color:#2B2829"
       id="stop89" /><stop
       offset="0.5"
       style="stop-color:#252122"
       id="stop91" /><stop
       offset="1"
       style="stop-color:#231F20"
       id="stop93" /></linearGradient><path
     fill="url(#SVGID_6_)"
     d="M471,382.956c0,12.175-9.87,22.044-22.045,22.044H63.045C50.87,405,41,395.131,41,382.956V63.044  C41,50.87,50.87,41,63.045,41h385.91C461.13,41,471,50.87,471,63.044V382.956z"
     id="path95" /><text
     stroke-miterlimit="10"
     font-size="110.2222"
     id="text97"
     x="60.109375"
     y="155.08594"
     style="font-size:110.22219849px;fill:#ffffff;stroke:#ffffff;stroke-miterlimit:10;font-family:ArialMT"><tspan
       style="font-size:112px;font-style:normal;font-variant:normal;font-weight:normal;font-stretch:normal;font-family:Monospace;-inkscape-font-specification:Monospace"
       id="tspan3088">$ _</tspan></text>
<g
     id="g99"><path
       opacity="0.1"
       fill="#FFFFFF"
       d="M448.889,41H63.111C50.938,41,41,50.936,41,63.111v193.023   c17-19.606,39.863-36.656,66.963-50.119l-47.155-85.112c-5.456-9.828-1.894-22.224,7.948-27.678   c9.826-5.455,22.227-1.901,27.682,7.941l49.507,89.316c33.164-10.969,70.522-17.149,110.055-17.149   c39.22,0,76.298,6.087,109.268,16.895l49.359-89.062c5.47-9.842,17.864-13.396,27.691-7.941c9.826,5.455,13.38,17.851,7.94,27.678   l-46.946,84.749C430.732,219.17,454,236.354,471,256.135V63.111C471,50.936,461.063,41,448.889,41z"
       id="path101" /><path
       opacity="0.1"
       fill="#FFFFFF"
       d="M123.98,281.191c9.117,0,16.521,7.395,16.521,16.522c0,9.146-7.404,16.526-16.521,16.526   c-9.142,0-16.546-7.381-16.546-16.526C107.435,288.586,114.839,281.191,123.98,281.191z"
       id="path103" /><path
       opacity="0.1"
       fill="#FFFFFF"
       d="M387.104,281.182c9.124,0,16.533,7.4,16.533,16.532c0,9.151-7.409,16.535-16.533,16.535   s-16.534-7.384-16.534-16.535C370.57,288.582,377.98,281.182,387.104,281.182z"
       id="path105" /></g></svg>