<?xml version="1.0" encoding="UTF-8" standalone="no"?>
<!-- Created with Inkscape (http://www.inkscape.org/) -->

<svg
   xmlns:osb="http://www.openswatchbook.org/uri/2009/osb"
   xmlns:dc="http://purl.org/dc/elements/1.1/"
   xmlns:cc="http://creativecommons.org/ns#"
   xmlns:rdf="http://www.w3.org/1999/02/22-rdf-syntax-ns#"
   xmlns:svg="http://www.w3.org/2000/svg"
   xmlns="http://www.w3.org/2000/svg"
   xmlns:xlink="http://www.w3.org/1999/xlink"
   xmlns:sodipodi="http://sodipodi.sourceforge.net/DTD/sodipodi-0.dtd"
   xmlns:inkscape="http://www.inkscape.org/namespaces/inkscape"
   width="192"
   height="192"
   viewBox="0 0 192 192"
   id="svg2"
   version="1.1"
   inkscape:version="0.91 r13725"
   sodipodi:docname="android-terminal-emulator-material.svg"
   inkscape:export-filename="/media/Disk/Dropbox/TNDesigns/graphic/android/icons/android-terminal-emulator/android-terminal-emulator-36.png"
   inkscape:export-xdpi="16.879999"
   inkscape:export-ydpi="16.879999">
  <defs
     id="defs4">
    <linearGradient
       inkscape:collect="always"
       id="linearGradient4675">
      <stop
         style="stop-color:#ffffff;stop-opacity:0.1"
         offset="0"
         id="stop4677" />
      <stop
         style="stop-color:#ffffff;stop-opacity:0"
         offset="1"
         id="stop4679" />
    </linearGradient>
    <linearGradient
       id="linearGradient6127"
       osb:paint="solid">
      <stop
         style="stop-color:#607d8b;stop-opacity:0.16403785;"
         offset="0"
         id="stop6129" />
    </linearGradient>
    <linearGradient
       inkscape:collect="always"
       id="linearGradient9937">
      <stop
         style="stop-color:#eceff1;stop-opacity:1;"
         offset="0"
         id="stop9939" />
      <stop
         style="stop-color:#cfd8dc;stop-opacity:1"
         offset="1"
         id="stop9941" />
    </linearGradient>
    <linearGradient
       inkscape:collect="always"
       xlink:href="#linearGradient9937"
       id="linearGradient9943"
       x1="96"
       y1="4"
       x2="96"
       y2="184"
       gradientUnits="userSpaceOnUse" />
    <radialGradient
       inkscape:collect="always"
       xlink:href="#linearGradient4675"
       id="radialGradient4681"
       cx="7.9580786e-13"
       cy="96"
       fx="7.9580786e-13"
       fy="96"
       r="96"
       gradientUnits="userSpaceOnUse"
       gradientTransform="matrix(0,2,-2,0,192,0)" />
    <filter
       style="color-interpolation-filters:sRGB;"
       inkscape:label="Drop Shadow"
       id="filter3770">
      <feFlood
         flood-opacity="0.470588"
         flood-color="rgb(0,0,0)"
         result="flood"
         id="feFlood3772" />
      <feComposite
         in="flood"
         in2="SourceGraphic"
         operator="out"
         result="composite1"
         id="feComposite3774" />
      <feGaussianBlur
         in="composite1"
         stdDeviation="2"
         result="blur"
         id="feGaussianBlur3776" />
      <feOffset
         dx="0"
         dy="0"
         result="offset"
         id="feOffset3778" />
      <feComposite
         in="offset"
         in2="SourceGraphic"
         operator="atop"
         result="composite2"
         id="feComposite3780" />
    </filter>
    <filter
       style="color-interpolation-filters:sRGB;"
       inkscape:label="Drop Shadow"
       id="filter4884">
      <feFlood
         flood-opacity="0.352941"
         flood-color="rgb(0,0,0)"
         result="flood"
         id="feFlood4886" />
      <feComposite
         in="flood"
         in2="SourceGraphic"
         operator="in"
         result="composite1"
         id="feComposite4888" />
      <feGaussianBlur
         in="composite1"
         stdDeviation="4"
         result="blur"
         id="feGaussianBlur4890" />
      <feOffset
         dx="0"
         dy="0"
         result="offset"
         id="feOffset4892" />
      <feComposite
         in="offset"
         in2="SourceGraphic"
         operator="out"
         result="composite2"
         id="feComposite4894" />
    </filter>
    <filter
       style="color-interpolation-filters:sRGB;"
       inkscape:label="Drop Shadow"
       id="filter4985">
      <feFlood
         flood-opacity="0.352941"
         flood-color="rgb(0,0,0)"
         result="flood"
         id="feFlood4987" />
      <feComposite
         in="flood"
         in2="SourceGraphic"
         operator="in"
         result="composite1"
         id="feComposite4989" />
      <feGaussianBlur
         in="composite1"
         stdDeviation="2"
         result="blur"
         id="feGaussianBlur4991" />
      <feOffset
         dx="0"
         dy="0"
         result="offset"
         id="feOffset4993" />
      <feComposite
         in="offset"
         in2="SourceGraphic"
         operator="out"
         result="composite2"
         id="feComposite4995" />
    </filter>
    <filter
       style="color-interpolation-filters:sRGB;"
       inkscape:label="Drop Shadow"
       id="filter5048">
      <feFlood
         flood-opacity="0.352941"
         flood-color="rgb(0,0,0)"
         result="flood"
         id="feFlood5050" />
      <feComposite
         in="flood"
         in2="SourceGraphic"
         operator="in"
         result="composite1"
         id="feComposite5052" />
      <feGaussianBlur
         in="composite1"
         stdDeviation="2"
         result="blur"
         id="feGaussianBlur5054" />
      <feOffset
         dx="0"
         dy="0"
         result="offset"
         id="feOffset5056" />
      <feComposite
         in="offset"
         in2="SourceGraphic"
         operator="out"
         result="composite2"
         id="feComposite5058" />
    </filter>
  </defs>
  <sodipodi:namedview
     id="base"
     pagecolor="#ffffff"
     bordercolor="#666666"
     borderopacity="1.0"
     inkscape:pageopacity="0.0"
     inkscape:pageshadow="2"
     inkscape:zoom="6.1458333"
     inkscape:cx="63.864407"
     inkscape:cy="96"
     inkscape:document-units="px"
     inkscape:current-layer="layer2"
     showgrid="false"
     units="px"
     borderlayer="true"
     showborder="true"
     inkscape:showpageshadow="false"
     inkscape:snap-bbox="true"
     inkscape:bbox-paths="true"
     inkscape:bbox-nodes="true"
     inkscape:snap-bbox-edge-midpoints="true"
     inkscape:snap-bbox-midpoints="true"
     inkscape:object-paths="true"
     inkscape:snap-intersection-paths="true"
     inkscape:object-nodes="true"
     inkscape:snap-smooth-nodes="true"
     inkscape:snap-midpoints="true"
     inkscape:snap-object-midpoints="true"
     inkscape:snap-center="true"
     showguides="true"
     inkscape:guide-bbox="true"
     inkscape:window-width="2160"
     inkscape:window-height="1404"
     inkscape:window-x="0"
     inkscape:window-y="0"
     inkscape:window-maximized="1">
    <inkscape:grid
       type="xygrid"
       id="grid3336"
       empspacing="4" />
    <sodipodi:guide
       position="4,188"
       orientation="1,0"
       id="guide3338" />
    <sodipodi:guide
       position="188,4"
       orientation="1,0"
       id="guide3340" />
    <sodipodi:guide
       position="180,180"
       orientation="0,1"
       id="guide3342" />
    <sodipodi:guide
       position="4,4"
       orientation="0,1"
       id="guide3344" />
    <sodipodi:guide
       position="96,192"
       orientation="1,0"
       id="guide3346"
       inkscape:label=""
       inkscape:color="rgb(0,0,255)" />
    <sodipodi:guide
       position="0,96"
       orientation="0,1"
       id="guide3348"
       inkscape:label=""
       inkscape:color="rgb(0,0,255)" />
    <sodipodi:guide
       position="12,152"
       orientation="1,0"
       id="guide3422" />
    <sodipodi:guide
       position="180,120"
       orientation="1,0"
       id="guide3424" />
    <sodipodi:guide
       position="60,16"
       orientation="0,1"
       id="guide3428" />
    <sodipodi:guide
       position="96,132"
       orientation="0,1"
       id="guide3505" />
  </sodipodi:namedview>
  <metadata
     id="metadata7">
    <rdf:RDF>
      <cc:Work
         rdf:about="">
        <dc:format>image/svg+xml</dc:format>
        <dc:type
           rdf:resource="http://purl.org/dc/dcmitype/StillImage" />
        <dc:title />
      </cc:Work>
    </rdf:RDF>
  </metadata>
  <g
     inkscape:label="Guides"
     inkscape:groupmode="layer"
     id="layer1"
     transform="translate(0,-860.36216)"
     sodipodi:insensitive="true"
     style="display:inline" />
  <g
     inkscape:groupmode="layer"
     id="layer2"
     inkscape:label="Base"
     style="display:inline"
     sodipodi:insensitive="true">
    <rect
       style="fill:#90a4ae;fill-opacity:1;stroke:none;stroke-width:1.35000002;stroke-miterlimit:7;stroke-dasharray:none"
       id="rect3404"
       width="184"
       height="184"
       x="4"
       y="4"
       ry="16" />
    <path
       style="fill:#607d8b;fill-opacity:1;stroke:none;stroke-width:1.35000002;stroke-miterlimit:7;stroke-dasharray:none"
       d="m 20,12 152,0 c 4.432,0 8,3.568 8,8 l 0,132 c 0,4.432 -3.568,8 -8,8 l -152,0 c -4.432,0 -8,-3.568 -8,-8 L 12,20 c 0,-4.432 3.568,-8 8,-8 z"
       id="rect3430"
       inkscape:connector-curvature="0"
       sodipodi:nodetypes="sssssssss" />
    <g
       id="g9776"
       style="fill:#ffffff;fill-opacity:1">
      <path
         id="path4259"
         d="M 20,20 20,24.882812 40,32 20,39.117188 20,44 44,36 44,32 44,28 20,20 Z"
         style="font-style:normal;font-variant:normal;font-weight:bold;font-stretch:normal;font-size:medium;line-height:125%;font-family:Sans;-inkscape-font-specification:'Sans Bold';letter-spacing:0px;word-spacing:0px;fill:#ffffff;fill-opacity:1;stroke:none;stroke-width:1px;stroke-linecap:butt;stroke-linejoin:miter;stroke-opacity:1"
         inkscape:connector-curvature="0" />
      <path
         inkscape:connector-curvature="0"
         id="path4343"
         d="m 48,52 20,0 0,-4 -20,0 z"
         style="fill:#ffffff;fill-opacity:1;fill-rule:evenodd;stroke:none;stroke-width:1px;stroke-linecap:butt;stroke-linejoin:miter;stroke-opacity:1" />
    </g>
    <path
       style="fill:#a4c639"
       d="m 38.992188,60 c -1.056873,0.0078 -2.126268,0.271426 -3.115235,0.818359 -3.161808,1.753354 -4.305642,5.743219 -2.548828,8.908203 L 47.830078,95.884766 C 32.033549,104.8921 19.513548,118.24662 12,134.08398 L 12,152 c 0,1.108 0.223203,2.16139 0.626953,3.11914 0.40375,0.95775 0.987938,1.81997 1.710938,2.54297 0.723,0.723 1.585218,1.30719 2.542968,1.71094 C 17.838609,159.7768 18.892,160 20,160 l 152,0 c 1.108,0 2.16139,-0.2232 3.11914,-0.62695 0.95775,-0.40375 1.81997,-0.98794 2.54297,-1.71094 0.723,-0.723 1.30719,-1.58522 1.71094,-2.54297 C 179.7768,154.16139 180,153.108 180,152 l 0,-17.91211 c -7.51447,-15.83905 -20.0346,-29.19487 -35.82617,-38.203124 l 14.49414,-26.158204 c 1.76346,-3.164985 0.61887,-7.154849 -2.55274,-8.908203 -3.16497,-1.750188 -7.15363,-0.602484 -8.91015,2.5625 L 132.3457,90.191406 C 121.19488,85.752351 108.91008,83.28125 95.996094,83.28125 c -12.914287,0 -25.198492,2.471392 -36.34961,6.910156 L 44.789062,63.380859 C 43.581054,61.204933 41.317307,59.982811 38.992188,60 Z m 14.654296,62.60547 c 3.791924,0 6.865235,3.07331 6.865235,6.86523 -2.83e-4,3.79221 -3.073602,6.86719 -6.865235,6.86719 -3.791633,0 -6.867187,-3.07527 -6.867187,-6.86719 0,-3.79163 3.075264,-6.86523 6.867187,-6.86523 z m 84.703126,0 c 3.79194,0 6.86719,3.07331 6.86719,6.86523 0,3.79221 -3.07525,6.86719 -6.86719,6.86719 -3.79163,0 -6.86523,-3.07527 -6.86523,-6.86719 0,-3.79163 3.07332,-6.86523 6.86523,-6.86523 z"
       id="path2994"
       inkscape:connector-curvature="0" />
    <path
       style="opacity:1;fill:#ffffff;fill-opacity:1;fill-rule:evenodd;stroke:none;stroke-width:1.10000002;stroke-miterlimit:7;stroke-dasharray:none;filter:url(#filter5048)"
       d="M 20,8 C 13.352,8 8,13.352 8,20 l 0,132 c 0,6.648 5.352,12 12,12 l 152,0 c 6.648,0 12,-5.352 12,-12 L 184,20 C 184,13.352 178.648,8 172,8 L 20,8 Z m 0,4 152,0 c 4.432,0 8,3.568 8,8 l 0,132 c 0,4.432 -3.568,8 -8,8 l -152,0 c -4.432,0 -8,-3.568 -8,-8 L 12,20 c 0,-4.432 3.568,-8 8,-8 z"
       id="rect5028"
       inkscape:connector-curvature="0" />
    <path
       style="fill:url(#linearGradient9943);fill-opacity:1;stroke:none;stroke-width:1.35000002;stroke-miterlimit:7;stroke-dasharray:none"
       d="M 20,4 C 11.136,4 4,11.136 4,20 l 0,148 c 0,8.864 7.136,16 16,16 l 152,0 c 8.864,0 16,-7.136 16,-16 L 188,20 C 188,11.136 180.864,4 172,4 L 20,4 Z m 0,8 152,0 c 4.432,0 8,3.568 8,8 l 0,132 c 0,4.432 -3.568,8 -8,8 l -152,0 c -4.432,0 -8,-3.568 -8,-8 L 12,20 c 0,-4.432 3.568,-8 8,-8 z"
       id="rect3404-5"
       inkscape:connector-curvature="0" />
  </g>
  <g
     inkscape:groupmode="layer"
     id="layer3"
     inkscape:label="Finish"
     style="display:inline"
     sodipodi:insensitive="true">
    <rect
       style="fill:url(#radialGradient4681);fill-opacity:1;fill-rule:evenodd;stroke:none;stroke-width:1.35000002;stroke-miterlimit:7;stroke-dasharray:none"
       id="rect4673"
       height="192"
       x="0"
       y="0"
       width="192" />
  </g>
</svg>
